<svg width="1902" height="1937" viewBox="0 0 1902 1937" fill="none" xmlns="http://www.w3.org/2000/svg">
<path d="M1901.01 225.092C1709.17 124.092 1291.31 -58.0082 1154.51 21.5918C1017.71 101.192 615.506 155.092 431.506 172.092C267.339 191.425 -47.0941 261.492 8.50593 387.092C64.1059 512.692 218.006 605.758 288.006 636.592C489.006 678.092 903.506 708.892 953.506 500.092C1003.51 291.292 1401.01 430.092 1593.51 525.592C1752.84 591.758 2021.61 748.592 1822.01 846.592C1622.41 944.592 1464.17 892.833 1396.5 892C1269.5 892 1076.61 828.592 875.006 874.592C673.406 920.592 452.006 1021.43 366.506 1066.09C239.673 1123.09 8.10586 1272.69 96.5059 1415.09C207.006 1593.09 160.506 1740.59 244.006 1724.59C310.806 1711.79 575.506 1782.59 699.506 1819.59C845.839 1860.43 1155.61 1917.59 1224.01 1819.59C1309.51 1697.09 1661.01 1630.09 1700.01 1738.59C1731.21 1825.39 1826.67 1905.76 1870.51 1935.09" stroke="white" stroke-width="3" stroke-dasharray="50 50"/>
</svg>
